<?xml version="1.0" standalone="no"?>
<!DOCTYPE svg PUBLIC "-//W3C//DTD SVG 20010904//EN"
 "http://www.w3.org/TR/2001/REC-SVG-20010904/DTD/svg10.dtd">
<svg version="1.0" xmlns="http://www.w3.org/2000/svg"
 width="789.000000pt" height="789.000000pt" viewBox="0 0 789.000000 789.000000"
 preserveAspectRatio="xMidYMid meet">
<metadata>
Created by potrace 1.14, written by Peter Selinger 2001-2017
</metadata>
<g transform="translate(0.000000,789.000000) scale(0.100000,-0.100000)"
fill="#000000" stroke="none">
<path d="M1146 7873 c-9 -9 -30 -13 -86 -15 -25 -1 -49 -5 -55 -9 -5 -4 -29
-6 -52 -6 -22 1 -39 -1 -37 -5 2 -4 -9 -6 -24 -6 -16 1 -35 -3 -43 -8 -8 -5
-21 -9 -29 -10 -8 0 -35 -9 -60 -20 -25 -10 -49 -18 -53 -16 -4 1 -10 -4 -13
-12 -3 -8 -12 -12 -20 -9 -8 3 -14 0 -14 -6 0 -6 -8 -11 -19 -11 -10 0 -24 -7
-31 -15 -7 -8 -16 -12 -21 -9 -5 3 -9 0 -9 -5 0 -6 -6 -10 -12 -9 -7 2 -12 -2
-11 -9 2 -7 -4 -10 -12 -7 -8 4 -15 1 -15 -5 0 -6 -5 -11 -10 -11 -6 0 -20 -9
-32 -20 -12 -11 -28 -20 -35 -20 -8 0 -11 -4 -8 -10 3 -5 1 -10 -5 -10 -15 0
-180 -166 -173 -174 3 -3 -2 -8 -11 -12 -9 -3 -14 -10 -11 -14 3 -4 -2 -10
-10 -14 -8 -3 -15 -10 -15 -16 0 -6 -9 -21 -20 -33 -21 -22 -70 -118 -70 -136
0 -6 -5 -11 -11 -11 -6 0 -8 -7 -5 -16 3 -8 2 -12 -4 -9 -6 3 -10 -2 -10 -12
0 -10 -7 -31 -15 -46 -8 -15 -17 -43 -21 -62 -3 -19 -9 -33 -13 -31 -4 3 -6
-10 -5 -27 1 -18 -2 -37 -6 -42 -5 -6 -10 -31 -11 -55 -2 -25 -7 -48 -13 -52
-7 -5 -7 -8 2 -8 9 0 10 -5 4 -17 -5 -10 -8 -37 -7 -60 1 -26 -2 -43 -9 -43
-6 0 -4 -5 4 -10 8 -5 11 -10 5 -10 -5 0 -10 -13 -11 -30 -1 -19 3 -27 10 -23
7 4 6 1 -1 -8 -18 -22 -19 -5225 -1 -5247 7 -9 8 -13 2 -9 -7 4 -11 -5 -12
-24 0 -20 3 -27 11 -22 7 4 6 -1 -2 -11 -13 -15 -13 -19 0 -27 10 -6 10 -9 2
-9 -7 0 -13 -5 -13 -11 0 -5 4 -8 8 -5 4 2 8 -4 8 -15 0 -10 -4 -19 -8 -19 -5
0 -5 -8 0 -17 4 -10 8 -42 7 -70 0 -30 4 -53 10 -53 5 0 3 -5 -5 -10 -13 -9
-13 -10 0 -10 13 0 13 -1 0 -10 -8 -5 -10 -10 -4 -10 5 0 11 -15 12 -32 2 -43
7 -66 14 -74 4 -3 4 -12 2 -19 -3 -7 0 -16 6 -20 9 -6 9 -9 0 -15 -9 -5 -8
-11 2 -21 7 -8 14 -27 15 -43 1 -16 6 -32 10 -35 4 -3 10 -17 11 -31 2 -13 11
-30 20 -38 10 -7 11 -11 5 -7 -9 4 -11 1 -7 -9 3 -9 11 -13 17 -9 6 3 7 1 3
-5 -4 -6 0 -24 8 -40 8 -16 12 -33 8 -38 -4 -5 0 -3 8 3 12 9 15 7 17 -15 0
-15 6 -28 12 -30 6 -2 11 -7 11 -12 0 -12 70 -116 71 -105 0 6 4 0 10 -13 5
-15 13 -21 21 -16 7 4 10 4 6 -1 -4 -4 2 -16 14 -26 11 -11 18 -19 14 -19 -4
0 2 -9 13 -21 11 -12 24 -18 30 -14 7 3 10 3 9 -2 -3 -8 37 -53 47 -53 2 0 16
-11 30 -26 14 -14 30 -22 37 -18 7 4 8 3 4 -4 -4 -7 -1 -12 9 -12 9 0 13 -5
10 -10 -3 -6 1 -10 11 -10 9 0 25 -10 35 -22 11 -11 19 -16 19 -9 0 6 10 3 22
-9 12 -11 28 -18 36 -15 7 2 15 -2 18 -10 4 -8 12 -15 20 -15 8 0 14 -5 14
-12 0 -6 3 -8 7 -5 3 4 12 2 20 -4 7 -6 13 -8 13 -4 0 4 7 2 15 -5 8 -7 21
-10 30 -6 8 3 14 0 12 -6 -1 -7 14 -15 33 -18 19 -3 44 -11 54 -17 10 -6 27
-8 37 -6 11 3 19 1 19 -3 0 -5 15 -10 33 -11 65 -3 135 -11 144 -15 4 -3 29
-4 56 -4 26 1 47 -3 47 -9 0 -5 5 -3 10 5 7 11 10 11 10 2 0 -9 5 -10 18 -3
10 5 23 7 29 3 6 -4 151 -7 321 -7 171 0 308 -4 305 -8 -3 -5 3 -5 13 0 12 6
941 9 2336 9 1275 -1 2318 3 2318 7 0 4 9 3 20 -3 14 -8 20 -8 20 0 0 8 6 8
20 0 15 -8 20 -8 20 1 0 8 5 7 17 -2 14 -12 16 -12 8 0 -6 11 -4 13 10 8 9 -4
23 -3 30 3 9 8 15 8 20 0 3 -6 11 -7 17 -3 7 3 31 6 55 6 24 -1 43 3 43 9 0 5
4 7 9 3 5 -3 12 -1 16 4 3 6 15 7 28 2 14 -6 30 -5 41 1 10 5 20 7 23 4 4 -3
12 -1 20 5 7 6 13 8 13 4 0 -4 7 -2 15 5 8 6 20 8 26 4 8 -5 9 -3 4 6 -6 10
-4 12 8 7 10 -3 17 -2 17 3 0 5 7 6 17 3 10 -4 14 -2 10 4 -5 7 0 9 13 6 11
-3 20 -1 20 4 0 5 9 9 20 10 22 2 94 35 150 69 19 12 40 23 45 24 6 2 19 12
29 22 11 10 26 18 33 18 8 0 11 4 8 10 -3 5 -1 10 5 10 6 0 8 5 4 12 -4 7 -3
8 4 4 13 -8 54 29 44 39 -4 4 -2 6 3 5 22 -5 34 1 40 20 3 11 9 19 13 17 4 -1
9 2 12 7 3 6 20 25 37 44 18 19 30 39 26 45 -3 5 -1 7 4 4 15 -9 46 29 39 48
-3 9 -2 14 3 11 12 -8 34 21 26 34 -4 6 -1 9 6 8 7 -2 14 3 15 10 1 6 2 17 3
23 0 5 6 7 13 3 8 -5 9 -2 5 9 -3 10 -2 17 2 17 5 0 12 7 15 16 4 10 2 13 -7
9 -6 -4 -4 0 6 8 10 8 19 24 22 35 2 11 8 29 14 40 6 11 8 22 5 25 -3 2 4 21
16 42 11 20 16 34 11 31 -5 -4 -3 6 4 22 8 15 16 45 19 66 3 21 7 40 10 43 3
3 1 15 -5 26 -8 15 -8 18 1 12 9 -5 10 -1 5 14 -3 11 -2 21 3 21 6 0 9 16 8
36 -1 20 2 38 6 40 4 3 3 16 -2 29 -6 17 -6 27 3 32 14 9 19 43 7 43 -7 0 -7
21 0 40 5 13 4 48 -1 71 -4 15 -3 32 1 39 5 7 4 24 -1 37 -5 15 -5 22 0 18 6
-3 9 4 8 15 -1 11 -5 20 -10 20 -6 0 -5 5 0 12 11 15 11 58 0 76 -5 6 -4 12 1
12 11 0 9 80 -3 99 -5 8 -4 12 1 8 12 -7 12 4153 0 4172 -6 9 -5 12 0 8 11 -7
12 618 1 629 -4 4 -2 14 5 21 9 11 9 16 -1 23 -11 6 -11 9 0 13 10 4 10 6 2 6
-9 1 -10 8 -3 26 6 16 6 25 -1 25 -6 0 -6 7 1 20 7 12 7 20 1 20 -10 0 -8 21
4 53 4 10 3 17 -5 17 -6 0 -8 -5 -4 -12 5 -9 2 -9 -9 1 -20 16 -22 22 -4 19 7
-2 11 7 10 22 -1 14 -3 43 -4 65 -1 22 -6 46 -12 53 -5 6 -7 12 -3 12 3 0 1
12 -4 26 -6 15 -6 23 -1 19 6 -3 6 7 1 26 -5 18 -7 35 -5 40 3 4 1 10 -4 14
-6 3 -8 12 -5 19 3 7 -2 21 -11 30 -12 12 -13 16 -3 17 7 0 4 4 -7 9 -11 5
-15 9 -8 9 13 1 5 41 -8 41 -5 0 -6 6 -3 14 3 7 -2 16 -10 19 -9 4 -13 13 -10
22 4 8 1 21 -5 29 -7 8 -14 23 -16 35 -2 12 -11 28 -20 37 -8 9 -13 19 -11 23
3 4 -4 13 -14 21 -10 8 -17 17 -14 22 3 4 0 8 -7 8 -7 0 -10 3 -6 6 3 3 1 11
-4 18 -39 47 -49 61 -54 77 -4 11 -11 19 -16 19 -6 0 -7 5 -4 10 4 6 3 9 -2 8
-5 -2 -21 10 -36 25 -15 17 -31 26 -38 21 -8 -4 -9 -3 -5 5 9 15 -63 83 -78
74 -6 -3 -8 -3 -4 2 8 9 -15 35 -31 35 -6 0 -11 4 -11 9 0 5 -13 14 -30 20
-17 5 -30 15 -30 20 0 6 -7 11 -15 11 -8 0 -15 3 -15 8 0 8 -48 32 -66 32 -7
0 -14 4 -16 9 -1 5 -12 11 -23 13 -11 1 -22 6 -25 10 -3 3 -14 8 -25 10 -11 1
-23 7 -26 11 -3 4 -16 9 -27 10 -12 1 -22 6 -22 12 0 5 -5 3 -10 -5 -5 -8 -10
-10 -10 -4 0 12 -28 22 -85 30 -16 3 -41 7 -55 10 -51 9 -75 9 -89 -1 -11 -7
-13 -7 -7 3 7 12 -35 16 -147 14 -23 0 -35 3 -31 10 4 6 -2 6 -15 -1 -16 -9
-21 -9 -21 1 0 9 -3 10 -8 2 -4 -7 -15 -8 -27 -4 -11 4 -30 4 -42 -1 -14 -5
-23 -5 -23 1 0 6 -5 10 -11 10 -5 0 -7 -5 -3 -12 5 -7 3 -8 -5 -3 -19 11 -191
13 -184 2 3 -5 -3 -4 -14 2 -14 7 -23 7 -31 -1 -7 -7 -12 -8 -12 -2 0 5 -51 9
-120 9 -66 0 -120 -4 -120 -8 0 -5 -6 -5 -12 0 -17 10 -228 10 -228 0 0 -5 -6
-5 -12 0 -19 12 -158 10 -158 -2 0 -6 -3 -7 -8 0 -10 14 -84 16 -75 2 4 -6 1
-7 -8 -2 -19 12 -211 13 -226 2 -7 -5 -13 -6 -13 -1 0 11 -211 11 -228 0 -7
-4 -12 -4 -12 1 0 4 -49 8 -110 8 -60 0 -110 -4 -110 -9 0 -5 -6 -4 -12 1 -11
8 -213 11 -243 3 -5 -1 -14 -1 -20 0 -28 7 -205 4 -205 -3 0 -5 -6 -5 -12 0
-18 11 -247 10 -241 -1 4 -5 0 -6 -8 -1 -18 12 -219 12 -212 1 4 -5 0 -5 -8 0
-19 11 -259 12 -252 0 4 -5 0 -6 -8 -1 -17 11 -219 13 -212 2 3 -5 -3 -5 -13
0 -23 12 -235 10 -254 -2 -8 -5 -11 -4 -7 2 7 11 -94 10 -113 -2 -8 -5 -11 -4
-7 2 7 11 -94 10 -113 -2 -7 -5 -11 -4 -7 1 6 11 -183 11 -201 0 -7 -4 -12 -4
-12 1 0 10 -56 11 -65 1 -4 -4 -16 -3 -26 3 -13 7 -26 6 -40 -2 -12 -6 -19 -7
-16 -2 7 11 -83 10 -101 -1 -6 -4 -12 -4 -12 1 0 4 -103 8 -229 8 -134 0 -227
-4 -223 -9 3 -5 -1 -5 -9 0 -18 11 -239 12 -239 1 0 -5 -6 -5 -12 0 -15 8
-168 11 -163 2 6 -8 -28 -5 -42 4 -7 5 -22 3 -34 -4 -15 -8 -19 -8 -15 0 10
15 -7 14 -22 -1 -9 -9 -12 -9 -12 1 0 10 -3 11 -14 2 -9 -7 -17 -8 -20 -2 -7
10 -25 9 -43 -2 -8 -5 -13 -3 -13 3 0 7 -7 7 -22 -1 -16 -9 -23 -9 -26 -1 -3
9 -9 9 -24 1 -16 -8 -19 -8 -13 1 6 9 3 9 -13 1 -26 -14 -35 -14 -27 -1 7 11
2 13 -9 3z"/>
</g>
</svg>
