<svg xmlns="http://www.w3.org/2000/svg" xml:space="preserve" viewBox="0 0 165 300"><path fill="#75B74E" d="M166 266v24l-16 3c-7-1-13-1-19 2-6 4-12 4-19 3-6-1-12-1-18 2a367 367 0 0 1-26-2l-35-1H6l-3-9v-29c6-3 11-6 17-7 5-2 8-3 9-8l7 2v-4l-2-16-3-23-3-24-3-28c0-4-2-8-1-11 3-5 1-10 1-15a927 927 0 0 0-9-66c-1-3 0-7 3-7l10-1c4-2 10 1 14-4L19 19l-5-9 51-5 15-2 14 1v4l-9 15-13 22h14l15-1-1 14 4 29c2 15 1 30 7 45 2 4 1 9 2 14l4 28v9l3 23 4 26c8 0 8 0 13-4l3-1c9-1 11 0 14 9l3 4c5 1 6 5 6 9l1 15 2 2M37 194l4 31 3 17c1 4 1 5 5 4v-6c8-5 12 2 16 6l3-4-5-2-9-6-5-48H36l1 8m79 35-5-50c-5 0-9 0-13 2l-2 4 3 22c1 6 0 11 6 13 3 4-6 5-2 9l4-3 4 4c2 3 3 3 5-1m-15-57 8-2-3-32-2-3-4 1-2 8c-11 8-3 18-4 28h7m-65 8 14-3c-2-9 1-19-7-26l-6 1c-1-8-1-8-6-7l5 35M86 9H68l-3 6 6 25 10-18 5-13M29 25l13 15 3-22c0-3-1-6-5-6l-14 1c-3 0-4 2-2 4l5 8m64 165-2-8h-5l3 24c1 6 1 11 7 13l-3-29m-24-17 7 1-4-25-6 2 3 22m-9 20c0 10 0 20 3 30 4-13-1-26-1-39h-2v9M49 20l3-6 4-1 5 7 3 11h1l-4-21-13 1-2 24 3-3V20m39 135-3-2-1 4 1 14 1 2h4l-1-9-1-9m-10 33c0-5 0-5-8-3l2 8c2-2 6 1 6-5m62 49c2 2 3 6 6 3v-6l-3-2c-2 1-2 3-3 5m-42-5c0-4-2-7-7-8l3 7 4 1z"/><path fill="#ffffff00" d="m166 266-2-2-1-15c0-4-1-8-6-9l-3-4c-3-9-5-10-14-9l-3 1c-5 4-5 4-13 4l-4-26-3-23v-9l-4-28c-1-5 0-10-2-14-6-15-5-30-7-45l-4-29 1-14-15 1H72l13-22 9-15V3h72v263z"/><path fill="#FFFFFF00" d="M166 2 95 3H3v297h163l-4 1H1V1h161l4 1z"/><path fill="#ffffff00" d="M166 300H95c5-3 11-3 17-2 7 1 13 1 19-3 6-3 12-3 19-2l16-3v10zM3 259V3a29754 29754 0 0 1 62 2l-51 5 5 9 24 28c-4 5-10 2-14 4l-10 1c-3 0-4 4-3 7l4 19 5 47c0 5 2 10-1 15-1 3 1 7 1 11l3 28 3 24 3 23 2 16v4l-7-2c-1 5-4 6-9 8-6 1-11 4-17 7z"/><path fill="#ffffff00" d="m37 193-1-7h13l5 48 9 6 5 2-3 4c-4-4-8-11-16-6v6c-4 1-4 0-5-4l-3-17-4-32zm79 37c-2 3-3 3-5 0l-4-4-4 3c-4-4 5-5 2-9-6-2-5-7-6-13l-3-22 2-4c4-2 8-2 13-2l5 51zm-15-58h-7c1-10-7-20 4-28l2-8 4-1 2 3 3 32-8 2zm-66 7-4-34c5-1 5-1 6 7l6-1c8 7 5 17 7 26l-15 2zM87 9l-6 13-10 18-6-25 3-6h19zM29 25l-5-8c-2-2-1-4 2-4l14-1c4 0 5 3 5 6l-3 22-13-15zm64 165 3 29c-6-2-6-7-7-13l-3-24h5l2 8zM73 300H3v-11l3 8h27l35 1 5 2zm-4-127-3-22 6-2 4 25-7-1zm-9 19v-8h2c0 13 5 26 1 39-3-10-3-20-3-31zM49 21v11l-3 3 2-24 13-1 4 21h-1l-3-11-5-7-4 1-3 7zm39 134 1 9 1 9h-4l-1-2-1-14 1-4 3 2zm-10 33c0 6-4 3-6 5l-2-8c8-2 8-2 8 3zm62 49c1-2 1-4 3-5l3 2v6c-3 3-4-1-6-3zm-42-5-4-1-3-7c5 1 7 4 7 8z"/></svg>