<svg xmlns="http://www.w3.org/2000/svg" xml:space="preserve" viewBox="0 0 933 933"><path fill="transparent" d="M934 355v579H1V1h933v354m-33 129 25-16v-2l-53-32c-18-11-37-20-56-29 30-28 57-61 82-95-41-11-82-18-125-20 19-38 34-77 45-118-42 4-83 11-124 23 5-42 5-83 2-126-39 19-75 40-108 65-10-41-24-80-42-119-30 30-57 62-80 98-23-36-49-68-80-98-17 39-31 78-41 119-34-25-70-47-108-65-5 43-4 84 1 126-41-12-82-20-124-23 12 41 26 80 45 118-42 2-83 9-125 20 25 34 52 66 83 95-39 17-75 37-110 62 35 24 71 45 110 62-31 28-58 60-83 95 42 11 83 18 125 20-19 38-33 77-45 118 42-4 83-11 124-24-5 43-5 84-1 127 38-19 74-40 108-65 10 41 24 80 42 119 30-31 56-63 79-98l14 20 45 55 17 18c4 5 4 5 7-1l1-3 27-71 11-39c34 25 69 46 108 65 3-43 3-85-2-127 41 13 82 20 125 24l-20-60-25-58c42-2 83-9 124-20-25-35-52-67-83-96 30-12 58-27 85-44z"/><path fill="#00A330" d="M901 484c-27 17-55 32-85 44 31 29 58 61 83 96-41 11-82 18-124 20l25 58 20 60c-43-4-84-11-125-24 5 42 5 84 2 127-39-19-74-40-108-65l-11 39-27 71-1 3c-3 6-3 6-7 1l-17-18-45-55-14-20c-23 35-49 67-79 98-18-39-32-78-42-119-34 25-70 46-108 65-4-43-4-84 1-127-41 13-82 20-124 24 12-41 26-80 45-118-42-2-83-9-125-20 25-35 52-67 83-95-39-17-75-38-110-62 35-25 71-45 110-62-31-29-58-61-83-95 42-11 83-18 125-20-19-38-33-77-45-118 42 3 83 11 124 23-5-42-6-83-1-126 38 18 74 40 108 65 10-41 24-80 41-119 31 30 57 62 80 98 23-36 50-68 80-98 18 39 32 78 42 119 33-25 69-46 108-65 3 43 3 84-2 126 41-12 82-19 124-23-11 41-26 80-45 118 43 2 84 9 125 20-25 34-52 67-82 95 19 9 38 18 56 29l53 32v2l-25 16M264 297l-12-2c-30-5-59-6-90-4 16 31 34 59 57 86-35 5-67 15-99 29 25 24 52 44 83 61-31 17-58 37-83 61l8 4 45 15 37 8 8 3c-22 26-41 54-56 85 34 2 68 0 103-6-12 33-21 66-25 100 34-10 65-23 95-41 0 35 3 69 12 103 14-12 27-22 39-34l35-36c7 15 13 31 21 46 7 15 16 29 24 44h3l24-44 20-46 35 36 39 33 1-1c8-33 12-66 11-101 31 17 61 31 95 41-4-35-12-67-24-99l2-1 4 1c30 5 60 7 91 6 5 0 6-1 3-6-14-27-31-53-51-77l-3-4c34-6 67-15 99-29-26-24-53-44-83-61l43-28c14-10 27-21 40-33-33-14-65-23-99-30 22-26 41-54 57-85-35-2-69 0-103 6 12-33 20-66 24-100-34 10-65 23-95 41 1-35-3-68-11-102-28 20-52 44-75 71-12-33-26-64-46-93-19 30-34 60-46 93-22-27-46-51-74-71-9 34-12 67-12 102l-46-23-48-19v9l5 27c4 22 10 44 19 65h-1z"/><path fill="#3BBD00" d="M265 296c-9-20-15-42-19-64l-5-27v-9l48 19 46 23c0-35 3-68 12-102 28 20 52 44 74 71 12-33 27-63 46-93 20 29 34 60 46 93 23-27 47-51 75-71 8 34 12 67 11 102 30-18 61-31 95-41-4 34-12 67-24 100 34-6 68-8 103-6-16 31-35 59-57 85 34 7 66 16 99 30-13 12-26 23-40 33l-43 28c30 17 57 37 83 61-32 14-65 23-99 29l3 4c20 24 37 50 51 77 3 5 2 6-3 6a429 429 0 0 1-95-7l-2 1c12 32 20 64 24 99-34-10-64-24-95-41 1 35-3 68-11 101l-1 1-39-33-35-36-20 46-24 44h-3c-8-15-17-29-24-44-8-15-14-31-21-46l-35 36c-12 12-25 22-39 34-9-34-12-68-12-103-30 18-61 31-95 41 4-34 13-67 25-100-35 6-69 8-103 6 15-31 34-59 56-85l-9-3h12l1 3 10 1h4l9 1h42l9-1h5l9-1-3 3c-13 17-23 34-32 53l-10 22c30-5 58-15 86-30-10 30-15 59-15 89 13-8 25-17 36-26 12-9 22-20 33-31 1 30 6 59 16 89 20-24 35-50 46-79 12 29 27 55 46 79 10-30 15-59 16-90 21 24 44 42 70 58v-6c-1-29-6-56-15-83 27 14 55 25 85 30-11-28-25-54-45-78 31 4 61 4 91-2l-32-31-36-27c29-6 57-16 84-31l-2-2a292 292 0 0 0-83-30c26-16 49-35 69-58-30-5-60-5-90-1v-1l7-8c15-21 27-43 36-67v-2a284 284 0 0 0-83 29l2-8a281 281 0 0 0 12-80l-3 2c-19 11-36 24-52 40l-2 3-13 11-1-16v-2c-2-24-7-46-15-68h-1c-19 23-34 48-44 76l-21-41c-7-13-16-25-26-37-10 29-15 59-16 88h-1l-3-3c-19-21-40-39-65-53h-1l-7-2-32-16c-15-7-30-12-44-17-6-3-8-1-7 5l5 25 14 53 1 9z"/><path fill="#3BBD00" d="m221 554-12 1-36-8-45-15-8-4c25-24 52-44 83-61-31-17-58-37-83-61 32-14 64-24 99-29-23-27-41-55-57-86 31-2 60-1 91 4 3 5 7 6 13 3v1l2 7 2 4c11 24 24 46 40 66l-6-1c-28-3-55-3-82 1v4c19 21 41 40 67 55l-7 2c-27 6-52 15-76 29v2a286 286 0 0 0 82 31l-4 3h-1l-28 21-2 1-32 30zm44-258-1-9-14-53-5-25c-1-6 1-8 7-5 14 5 29 10 44 17l32 16 7 3v7l1 7v7l1 7v2l1 5v3l1 3v3l1 2v3a80 80 0 0 0 2 9l1 3v2l1 2v2l2 6v1l1 2 1 5-2 4a328 328 0 0 1-27-12l-2-1-6-2-2-1a229 229 0 0 1-15-5l-9-3a61 61 0 0 0-8-2h-3l-6-2h-3v-1z"/><path fill="#3BBD00" d="m264 297 4 1h-3c-5 3-9 2-12-2l11 1z"/><path fill="#FEE401" d="M584 606c9 27 14 54 15 83v6c-26-16-49-34-70-58-1 31-6 60-16 90-19-24-34-50-46-79-11 29-26 55-46 79-10-30-15-59-16-89-11 11-21 22-33 31-11 9-23 18-36 26 0-30 5-59 15-89-28 15-56 25-86 30l10-22c9-19 19-36 32-53l3-3 2-1c29-5 56-15 82-29l-2 4c-7 11-15 20-21 31l-19 41c25-13 46-31 65-52l3-3c-10 28-15 57-15 88 21-24 35-49 46-76 1 29 5 58 16 86 11-28 16-57 17-87 10 28 25 53 45 76 0-30-5-58-13-85l7 7 36 32c7 6 16 10 24 15l1 1z"/><path fill="#FFE401" d="M336 261v-7l-1-7 1-6v-2a276 276 0 0 1 68 56h1c1-29 6-59 16-88 10 12 19 24 26 37l21 41a279 279 0 0 1 46-76 261 261 0 0 1 14 70l1 16 13-11c3 0 4-1 3-3 15-16 32-29 51-40l3 2a277 277 0 0 1-14 84l-1 1-1 1-1 1-4 2c-22 13-42 29-59 49l-5 4c10-29 15-57 15-88-20 24-35 49-45 77-1-30-6-59-17-88-11 29-15 58-16 87-11-27-25-52-46-76 0 31 5 60 15 88h-1l-3-4c-17-20-37-36-60-49l-4-2-1-1-1-2-2-6a884 884 0 0 1-2-8l-2-6v-2l-1-2v-2l-1-3v-1l-2-8v-3l-1-2v-3l-1-3v-3l-1-5v-2l-1-7z"/><path fill="#FDE401" d="m584 606-1-1c-4-10-7-19-12-28l-30-48 1-1c25 15 52 24 82 29-20-24-42-42-68-57l44 2 44-2v-2c-25-16-53-25-82-31l2-1c27-5 53-14 77-28l4-3h1l7 2c26 6 52 16 76 28l2 2c-27 15-55 25-84 31l36 27 32 31c-30 6-60 6-91 2 20 24 34 50 45 78-30-5-58-16-85-30z"/><path fill="#FEE401" d="M646 435h-1c-30-5-59-5-89 0 26-16 48-34 68-58-31 5-58 15-84 29l3-5c16-19 28-41 38-65l1-6 1-1 1-1 1-1 8-3c23-12 48-21 75-26v2c-9 24-21 46-36 67l-7 8v1c30-4 60-4 90 1-20 23-43 42-69 58z"/><path fill="#FFE401" d="M311 557h-1l-9 1c-3-2-4-1-5 1l-9 1c-2-4-3-2-4 0h-34c-2-4-3-2-4 0l-9-1c-2-3-3-3-4 0l-10-1-1-3a1590 1590 0 0 1 34-31v-1l28-20h1v-1l4-3h2l30 3 54-2v2c-24 15-45 33-63 55z"/><path fill="#FEE401" d="M283 560c1-2 2-4 4 0h-4zm-38 0c1-2 2-4 4 0h-4zm-13-1c1-3 2-3 4 0h-4zm64 0c1-2 2-3 4-1l-4 1zm248-278c2 2 1 3-2 3l2-3zm55-38-2-2 2-2v4zm-263-4v2l-1-1 1-1zm192 40v-2 2z"/><path fill="#FAE300" d="M668 300v-2 2z"/><path fill="#FEE401" d="M513 209h-1 1z"/><path fill="#FFE401" d="M288 498c-29-5-56-16-82-30v-2c24-14 49-23 76-29l7-2c-26-15-48-34-67-56v-3c27-4 54-4 82-1l6 1 1 1c19 23 42 42 67 58-29-5-58-5-87 1a280 280 0 0 0 78 30l-1 2c-28 6-54 16-79 30h-1z"/><path fill="#FFE401" d="m311 377-1-1a290 290 0 0 1-44-77l1-1h1l6 1 3 1h1l7 2 9 2 2 1 13 4 2 1 6 2 2 1a1675 1675 0 0 1 32 14v2l1 1v2c10 27 24 50 41 73h-1l-42-18c-12-5-26-7-39-10z"/><path fill="#FEE401" d="M288 498h2v1h-2v-1zm-66-122v3-3zm62 126v1l-1-1h1zm-29 21v1h-1l1-1zm-49-57v2-2zm61-168-1 1v-1h1z"/><path fill="#3BBD00" d="m350 327-4-1 2-5 2 6zm-10-38zm-4-28 1 7-1-7zm-1-14 1 7-1-7zm-50 54-7-1 7 1zm59 6 2 6-2-6zm-7-37 1 5-1-5zm-6 48-4-2 4 2zm7-40 1 3-1-3zm-61 21h-3 3zm65-1 1 3-1-3zm4 16 1 2-1-2zm-27-1-2-1 2 1zm-8-3-2-1 2 1zm32-7 1 2-1-2zm-4-19 1 2-1-2zm-43 21-2-1 2 1z"/><path fill="#fff" d="M290 499v-1a244 244 0 0 1 83-31v-1h-4a269 269 0 0 1-78-30c29-6 58-6 87-1-25-16-48-35-67-58 13 3 27 5 39 10l43 18 1 1v-2a257 257 0 0 1-42-74l4 2a243 243 0 0 1 63 53h1c-10-28-15-57-15-88 21 24 35 49 46 76 1-29 5-58 16-87 11 29 16 58 17 88 10-28 25-53 45-77 0 31-5 59-15 88l5-4a245 245 0 0 1 63-51l-1 6a245 245 0 0 1-41 70c26-14 53-24 84-29-20 24-42 42-68 58 30-5 59-5 88 0l-3 3a243 243 0 0 1-79 29c29 6 57 15 82 31v2l-44 2-44-2c26 15 48 33 68 57-30-5-57-14-82-29l-2-1h-1l1 1 1 1 30 48c5 9 8 18 12 28-8-5-17-9-24-15l-36-32-7-7c8 27 13 55 13 85-20-23-35-48-45-76-1 30-6 59-17 87-11-28-15-57-16-86-11 27-25 52-46 76a251 251 0 0 1 16-89h-1v1l-3 3c-19 21-40 39-65 52l19-41c6-11 14-20 21-31l2-4c-26 14-53 24-82 29a236 236 0 0 1 67-57l-1-1-4 1-54 2-30-3zm62 105zm0-274-1-1 1 1zm231-1-1 1 1-1z"/><path fill="#FEE401" d="m374 500 4-1 1 1-5 2v-2z"/><path fill="#FFE402" d="M369 466h4v1l-5 1 1-2z"/><path fill="#FEE401" d="M420 549v-1h1l-1 1z"/><path fill="#FDE401" d="M540 528h1v1l-1-1zm0 0-1-1h1v1z"/></svg>