<svg version="1.1" id="Layer_1" xmlns="http://www.w3.org/2000/svg" xmlns:xlink="http://www.w3.org/1999/xlink" x="0px" y="0px"
	 width="100%" viewBox="0 0 1562 1562" enable-background="new 0 0 1562 1562" xml:space="preserve">
<path fill="#042F6B" opacity="1.000000" stroke="none" 
	d="
M0.999994,822.000000 
	C1.000000,795.312439 1.000000,768.624878 1.406983,741.413208 
	C2.195745,740.033630 2.850668,739.198914 2.917403,738.319458 
	C3.657064,728.572449 4.063531,718.794373 5.034346,709.072021 
	C6.563669,693.756409 7.478349,678.287292 10.400521,663.222168 
	C16.260441,633.011536 22.552576,602.842407 30.029062,572.997498 
	C41.435989,527.463013 58.761131,483.985291 79.188652,441.783295 
	C98.471947,401.945282 121.100502,364.065674 146.912643,328.072754 
	C166.857025,300.261963 188.428009,273.782257 211.852936,248.884781 
	C225.416046,234.469025 239.602905,220.554184 254.369675,207.378448 
	C273.174988,190.599304 292.225311,173.972916 312.274261,158.733383 
	C362.585114,120.491249 416.998749,89.101448 475.200745,64.349777 
	C516.351990,46.849297 558.608215,32.835712 602.202332,22.719965 
	C649.940979,11.642483 698.163879,4.508232 747.177551,2.914116 
	C748.471130,2.872044 749.726685,1.664202 751.000000,1.000005 
	C771.020874,1.000000 791.041809,1.000000 811.575989,1.409502 
	C813.112305,2.206204 814.116760,2.868045 815.161133,2.938284 
	C826.079834,3.672666 837.029236,4.046221 847.922546,5.040623 
	C864.076782,6.515267 880.288757,7.787945 896.304443,10.259039 
	C928.561829,15.236056 960.473389,21.896166 991.957947,30.728846 
	C1036.535156,43.234505 1079.627319,59.488960 1121.271484,79.657516 
	C1162.187134,99.473274 1201.066650,122.691505 1237.910767,149.331741 
	C1267.690063,170.863846 1296.179443,194.007446 1322.180542,219.953140 
	C1341.231812,238.963852 1359.689575,258.660614 1377.228394,279.068787 
	C1392.666016,297.032074 1407.135620,315.928284 1420.849243,335.252411 
	C1453.942627,381.885071 1481.213501,431.829773 1502.881836,484.770966 
	C1523.231812,534.491089 1538.401978,585.719910 1548.235840,638.592651 
	C1554.945801,674.668884 1559.212158,711.013489 1560.726196,747.586243 
	C1561.743652,772.161133 1560.761597,796.850159 1559.894775,821.460693 
	C1559.294678,838.499084 1557.827759,855.543213 1555.903076,872.488708 
	C1553.943604,889.739563 1551.717407,907.030701 1548.226440,924.020325 
	C1543.129272,948.825256 1537.361816,973.526306 1530.856689,997.999695 
	C1521.931519,1031.577271 1510.013428,1064.206055 1495.462402,1095.743164 
	C1484.821533,1118.805298 1473.557983,1141.642334 1461.292236,1163.873535 
	C1450.719849,1183.035156 1438.803955,1201.510376 1426.613037,1219.706787 
	C1416.835571,1234.300659 1405.659790,1247.952393 1395.319336,1262.178345 
	C1392.722168,1265.751587 1389.888794,1267.101074 1385.419556,1267.097290 
	C1243.432861,1266.977295 1101.445923,1266.999023 959.459045,1266.992798 
	C957.627502,1266.992676 955.795898,1266.907104 953.997314,1266.657715 
	C954.030334,1266.454102 954.065369,1266.042603 954.344849,1265.864380 
	C963.437195,1257.550049 972.483459,1249.651001 981.027893,1241.242065 
	C1100.168213,1123.991821 1181.104126,984.545898 1222.893066,822.680664 
	C1230.076416,794.857178 1234.925293,766.390991 1239.929077,738.058533 
	C1243.443115,718.161194 1245.743042,698.025452 1247.919556,677.924011 
	C1249.501953,663.308777 1250.504272,648.587769 1250.855103,633.892212 
	C1251.363525,612.601135 1251.059082,591.290405 1251.062622,569.988098 
	C1251.062866,568.811401 1250.710083,567.634705 1250.433228,565.906311 
	C1248.591064,567.434998 1247.296265,568.466431 1246.047974,569.551514 
	C1159.545898,644.740295 1073.050049,719.936096 986.526489,795.100342 
	C985.198425,796.254211 983.534485,797.021484 982.009033,797.536133 
	C983.667358,781.429321 985.809143,765.787842 986.894714,750.073364 
	C988.072937,733.017334 988.933899,715.885315 988.724426,698.801270 
	C988.458069,677.079590 987.097961,655.366577 985.971924,633.662109 
	C985.345703,621.590210 984.631897,609.497620 983.243713,597.496948 
	C981.569946,583.027222 979.338257,568.612488 976.983093,554.233704 
	C974.296692,537.832642 971.681213,521.396423 968.212585,505.151062 
	C953.332642,435.461121 930.198303,368.567352 899.291138,304.362213 
	C897.954163,301.584778 896.383240,298.919983 894.567871,295.545898 
	C893.226990,298.299500 892.248047,300.212189 891.352417,302.163147 
	C853.904419,383.740356 816.479065,465.328003 779.014343,546.897522 
	C765.670532,575.950134 752.233276,604.959778 738.660522,633.963745 
	C738.482422,633.938477 738.124146,633.904602 738.032959,633.533569 
	C712.754700,547.392822 674.447449,467.835632 624.356689,393.904541 
	C574.270386,319.979828 514.669434,254.816620 445.354156,198.658081 
	C444.917175,198.918488 444.480194,199.178894 444.043213,199.439316 
	C444.043213,201.578934 444.043213,203.718567 444.043213,205.858185 
	C444.043213,556.833984 444.042847,907.809753 444.052032,1258.785522 
	C444.052094,1261.449829 444.183594,1264.114258 443.773071,1266.843994 
	C383.970428,1266.939453 324.648468,1266.974243 265.326508,1266.997192 
	C235.665176,1267.008667 206.003632,1267.044922 176.342941,1266.904297 
	C174.101822,1266.893677 170.945786,1266.258179 169.771255,1264.722656 
	C157.571854,1248.774658 145.214203,1232.911743 133.818237,1216.392090 
	C106.474205,1176.754028 83.921844,1134.413696 64.776260,1090.267090 
	C51.821857,1060.396240 40.932194,1029.760498 31.944059,998.459656 
	C22.190378,964.492737 14.221449,930.117737 9.919291,895.016602 
	C7.141424,872.352112 5.306100,849.572632 2.935022,826.856506 
	C2.760922,825.188538 1.666529,823.616577 0.999994,822.000000 
z"/>
<path fill="#00000000" opacity="1.000000" stroke="none" 
	d="
M953.964355,1266.861328 
	C955.795898,1266.907104 957.627502,1266.992676 959.459045,1266.992798 
	C1101.445923,1266.999023 1243.432861,1266.977295 1385.419556,1267.097290 
	C1389.888794,1267.101074 1392.722168,1265.751587 1395.319336,1262.178345 
	C1405.659790,1247.952393 1416.835571,1234.300659 1426.613037,1219.706787 
	C1438.803955,1201.510376 1450.719849,1183.035156 1461.292236,1163.873535 
	C1473.557983,1141.642334 1484.821533,1118.805298 1495.462402,1095.743164 
	C1510.013428,1064.206055 1521.931519,1031.577271 1530.856689,997.999695 
	C1537.361816,973.526306 1543.129272,948.825256 1548.226440,924.020325 
	C1551.717407,907.030701 1553.943604,889.739563 1555.903076,872.488708 
	C1557.827759,855.543213 1559.294678,838.499084 1559.894775,821.460693 
	C1560.761597,796.850159 1561.743652,772.161133 1560.726196,747.586243 
	C1559.212158,711.013489 1554.945801,674.668884 1548.235840,638.592651 
	C1538.401978,585.719910 1523.231812,534.491089 1502.881836,484.770966 
	C1481.213501,431.829773 1453.942627,381.885071 1420.849243,335.252411 
	C1407.135620,315.928284 1392.666016,297.032074 1377.228394,279.068787 
	C1359.689575,258.660614 1341.231812,238.963852 1322.180542,219.953140 
	C1296.179443,194.007446 1267.690063,170.863846 1237.910767,149.331741 
	C1201.066650,122.691505 1162.187134,99.473274 1121.271484,79.657516 
	C1079.627319,59.488960 1036.535156,43.234505 991.957947,30.728846 
	C960.473389,21.896166 928.561829,15.236056 896.304443,10.259039 
	C880.288757,7.787945 864.076782,6.515267 847.922546,5.040623 
	C837.029236,4.046221 826.079834,3.672666 815.161133,2.938284 
	C814.116760,2.868045 813.112305,2.206204 812.044678,1.409502 
	C1062.297729,1.000000 1312.595581,1.000000 1562.893311,0.999988 
	C1562.928955,1.131063 1562.995728,1.262148 1562.995728,1.393235 
	C1563.000000,521.819336 1563.000000,1042.245483 1563.000000,1563.000000 
	C1310.979248,1563.000000 1058.958252,1563.000000 806.230347,1562.605347 
	C807.205261,1561.807007 808.875183,1561.117432 810.570984,1561.046631 
	C821.003723,1560.610474 831.480591,1560.757568 841.869751,1559.863159 
	C856.079834,1558.639893 870.245850,1556.819214 884.391846,1554.959229 
	C898.347839,1553.124512 912.366272,1551.484985 926.162048,1548.768188 
	C959.744568,1542.155151 992.938660,1533.938843 1025.477295,1523.174438 
	C1065.286133,1510.004639 1103.938843,1494.120605 1140.988892,1474.454468 
	C1155.155151,1466.934937 1169.559082,1459.722046 1183.056885,1451.117676 
	C1203.330078,1438.193970 1222.946167,1424.233887 1242.739380,1410.566040 
	C1247.916016,1406.991089 1252.714600,1402.868652 1258.344238,1398.485840 
	C940.251465,1398.485840 623.206848,1398.485840 305.018341,1398.485840 
	C318.313385,1408.442383 330.368958,1418.072998 343.026886,1426.833130 
	C376.237335,1449.817139 410.967468,1470.323853 447.853668,1486.809937 
	C473.499878,1498.272461 499.535248,1508.968140 525.837402,1518.831299 
	C554.723328,1529.663208 584.575928,1537.540527 614.766907,1543.929321 
	C629.125732,1546.968140 643.580811,1549.624512 658.076416,1551.923584 
	C671.184875,1554.002808 684.375488,1555.701416 697.588135,1556.952148 
	C715.140198,1558.613892 732.748108,1559.688843 750.334290,1560.984131 
	C752.158325,1561.118652 754.015076,1560.910156 755.819214,1561.146606 
	C756.285767,1561.207764 756.610291,1562.352783 757.000000,1563.000000 
	C505.073639,1563.000000 253.147263,1563.000000 1.000000,1563.000000 
	C1.000000,1316.312500 1.000000,1069.624878 0.999994,822.468628 
	C1.666529,823.616577 2.760922,825.188538 2.935022,826.856506 
	C5.306100,849.572632 7.141424,872.352112 9.919291,895.016602 
	C14.221449,930.117737 22.190378,964.492737 31.944059,998.459656 
	C40.932194,1029.760498 51.821857,1060.396240 64.776260,1090.267090 
	C83.921844,1134.413696 106.474205,1176.754028 133.818237,1216.392090 
	C145.214203,1232.911743 157.571854,1248.774658 169.771255,1264.722656 
	C170.945786,1266.258179 174.101822,1266.893677 176.342941,1266.904297 
	C206.003632,1267.044922 235.665176,1267.008667 265.326508,1266.997192 
	C324.648468,1266.974243 383.970428,1266.939453 444.100037,1266.850098 
	C445.947449,1266.585083 446.987183,1266.379639 448.213440,1266.457764 
	C449.301971,1266.745850 450.203979,1266.750610 451.408234,1266.807861 
	C452.116608,1266.825562 452.522705,1266.790649 453.393677,1266.856934 
	C454.857574,1266.972046 455.856567,1266.998291 456.855591,1266.998291 
	C621.061951,1267.000122 785.268372,1267.000366 949.474731,1266.994263 
	C950.971252,1266.994263 952.467834,1266.907593 953.964355,1266.861328 
z"/>
<path fill="#00000000" opacity="1.000000" stroke="none" 
	d="
M750.531372,1.000005 
	C749.726685,1.664202 748.471130,2.872044 747.177551,2.914116 
	C698.163879,4.508232 649.940979,11.642483 602.202332,22.719965 
	C558.608215,32.835712 516.351990,46.849297 475.200745,64.349777 
	C416.998749,89.101448 362.585114,120.491249 312.274261,158.733383 
	C292.225311,173.972916 273.174988,190.599304 254.369675,207.378448 
	C239.602905,220.554184 225.416046,234.469025 211.852936,248.884781 
	C188.428009,273.782257 166.857025,300.261963 146.912643,328.072754 
	C121.100502,364.065674 98.471947,401.945282 79.188652,441.783295 
	C58.761131,483.985291 41.435989,527.463013 30.029062,572.997498 
	C22.552576,602.842407 16.260441,633.011536 10.400521,663.222168 
	C7.478349,678.287292 6.563669,693.756409 5.034346,709.072021 
	C4.063531,718.794373 3.657064,728.572449 2.917403,738.319458 
	C2.850668,739.198914 2.195745,740.033630 1.406983,740.944580 
	C1.000000,494.405731 1.000000,247.811493 1.000000,1.000000 
	C250.687515,1.000000 500.375092,1.000000 750.531372,1.000005 
z"/>
<path fill="#B3A369" opacity="1.000000" stroke="none" 
	d="
M757.468628,1563.000000 
	C756.610291,1562.352783 756.285767,1561.207764 755.819214,1561.146606 
	C754.015076,1560.910156 752.158325,1561.118652 750.334290,1560.984131 
	C732.748108,1559.688843 715.140198,1558.613892 697.588135,1556.952148 
	C684.375488,1555.701416 671.184875,1554.002808 658.076416,1551.923584 
	C643.580811,1549.624512 629.125732,1546.968140 614.766907,1543.929321 
	C584.575928,1537.540527 554.723328,1529.663208 525.837402,1518.831299 
	C499.535248,1508.968140 473.499878,1498.272461 447.853668,1486.809937 
	C410.967468,1470.323853 376.237335,1449.817139 343.026886,1426.833130 
	C330.368958,1418.072998 318.313385,1408.442383 305.018341,1398.485840 
	C623.206848,1398.485840 940.251465,1398.485840 1258.344238,1398.485840 
	C1252.714600,1402.868652 1247.916016,1406.991089 1242.739380,1410.566040 
	C1222.946167,1424.233887 1203.330078,1438.193970 1183.056885,1451.117676 
	C1169.559082,1459.722046 1155.155151,1466.934937 1140.988892,1474.454468 
	C1103.938843,1494.120605 1065.286133,1510.004639 1025.477295,1523.174438 
	C992.938660,1533.938843 959.744568,1542.155151 926.162048,1548.768188 
	C912.366272,1551.484985 898.347839,1553.124512 884.391846,1554.959229 
	C870.245850,1556.819214 856.079834,1558.639893 841.869751,1559.863159 
	C831.480591,1560.757568 821.003723,1560.610474 810.570984,1561.046631 
	C808.875183,1561.117432 807.205261,1561.807007 805.761658,1562.605347 
	C789.979126,1563.000000 773.958191,1563.000000 757.468628,1563.000000 
z"/>
<path fill="#017FAD" opacity="1.000000" stroke="none" 
	d="
M448.026917,1266.174194 
	C446.987183,1266.379639 445.947449,1266.585083 444.580719,1266.784546 
	C444.183594,1264.114258 444.052094,1261.449829 444.052032,1258.785522 
	C444.042847,907.809753 444.043213,556.833984 444.043213,205.858185 
	C444.043213,203.718567 444.043213,201.578934 444.043213,199.439316 
	C444.480194,199.178894 444.917175,198.918488 445.354156,198.658081 
	C514.669434,254.816620 574.270386,319.979828 624.356689,393.904541 
	C674.447449,467.835632 712.754700,547.392822 737.971619,633.913147 
	C737.285706,636.520874 736.665527,638.421692 735.839111,640.228210 
	C729.743042,653.553772 723.587463,666.852173 717.485046,680.174866 
	C699.871826,718.627930 682.302307,757.101013 664.662781,795.541992 
	C650.703735,825.962585 636.629639,856.330444 622.673645,886.752502 
	C605.107300,925.044373 587.640076,963.381836 570.072083,1001.672974 
	C555.975586,1032.397583 541.769409,1063.072021 527.653259,1093.787720 
	C507.348663,1137.969238 487.038116,1182.148071 466.836853,1226.376831 
	C462.979858,1234.821411 459.617554,1243.492065 456.006165,1252.034424 
	C455.985352,1252.010498 456.040924,1251.979614 455.830139,1252.214111 
	C455.406586,1252.812256 455.193848,1253.175659 454.889954,1253.812500 
	C454.358368,1255.083130 453.917847,1256.080688 453.477356,1257.078125 
	C455.512177,1256.613647 456.875061,1255.552002 458.168091,1254.411377 
	C472.639069,1241.645508 487.030579,1228.788696 501.582214,1216.115601 
	C515.464355,1204.025513 529.572388,1192.195068 543.466858,1180.118896 
	C557.620789,1167.817139 571.573669,1155.284180 585.728638,1142.983643 
	C599.502075,1131.014648 613.483887,1119.285278 627.257935,1107.316895 
	C643.792908,1092.949585 660.149231,1078.376465 676.684753,1064.009644 
	C695.846130,1047.361694 715.166016,1030.895996 734.326294,1014.246826 
	C748.480896,1001.947083 762.425964,989.406250 776.581055,977.107178 
	C793.111572,962.744019 809.824341,948.590515 826.354431,934.226746 
	C840.509766,921.926697 854.449036,909.377869 868.610657,897.085144 
	C884.896362,882.948669 901.387695,869.048950 917.667908,854.906128 
	C934.329956,840.431335 950.790466,825.724487 967.461243,811.259888 
	C971.679626,807.599731 976.362610,804.475220 980.867004,801.534119 
	C979.541138,814.932068 978.839478,828.012146 976.665344,840.842773 
	C973.388794,860.179321 969.519897,879.441895 965.130493,898.558533 
	C953.525574,949.099915 937.657288,998.275940 917.169861,1045.962158 
	C914.127686,1053.042969 910.407776,1058.338867 902.880859,1061.083130 
	C895.593445,1063.740234 888.680359,1067.420044 881.590393,1070.623047 
	C854.139404,1083.024780 826.676819,1095.400757 799.231873,1107.815674 
	C780.984802,1116.069946 762.770813,1124.397217 744.523193,1132.650269 
	C717.233459,1144.993286 689.919861,1157.283203 662.630554,1169.626953 
	C644.232056,1177.949097 625.869446,1186.350708 607.470093,1194.671021 
	C579.872253,1207.150635 552.261169,1219.600952 524.645569,1232.041382 
	C512.711487,1237.417480 500.708252,1242.641724 488.816711,1248.109619 
	C476.160950,1253.928955 463.600220,1259.955078 450.624634,1265.914795 
	C449.509857,1266.017334 448.768402,1266.095825 448.026917,1266.174194 
z"/>
<path fill="#78C6D6" opacity="1.000000" stroke="none" 
	d="
M450.997955,1265.890869 
	C463.600220,1259.955078 476.160950,1253.928955 488.816711,1248.109619 
	C500.708252,1242.641724 512.711487,1237.417480 524.645569,1232.041382 
	C552.261169,1219.600952 579.872253,1207.150635 607.470093,1194.671021 
	C625.869446,1186.350708 644.232056,1177.949097 662.630554,1169.626953 
	C689.919861,1157.283203 717.233459,1144.993286 744.523193,1132.650269 
	C762.770813,1124.397217 780.984802,1116.069946 799.231873,1107.815674 
	C826.676819,1095.400757 854.139404,1083.024780 881.590393,1070.623047 
	C888.680359,1067.420044 895.593445,1063.740234 902.880859,1061.083130 
	C910.407776,1058.338867 914.127686,1053.042969 917.169861,1045.962158 
	C937.657288,998.275940 953.525574,949.099915 965.130493,898.558533 
	C969.519897,879.441895 973.388794,860.179321 976.665344,840.842773 
	C978.839478,828.012146 979.541138,814.932068 981.022888,801.235168 
	C981.438293,799.660828 981.732727,798.815002 982.027222,797.969238 
	C983.534485,797.021484 985.198425,796.254211 986.526489,795.100342 
	C1073.050049,719.936096 1159.545898,644.740295 1246.047974,569.551514 
	C1247.296265,568.466431 1248.591064,567.434998 1250.433228,565.906311 
	C1250.710083,567.634705 1251.062866,568.811401 1251.062622,569.988098 
	C1251.059082,591.290405 1251.363525,612.601135 1250.855103,633.892212 
	C1250.504272,648.587769 1249.501953,663.308777 1247.919556,677.924011 
	C1245.743042,698.025452 1243.443115,718.161194 1239.929077,738.058533 
	C1234.925293,766.390991 1230.076416,794.857178 1222.893066,822.680664 
	C1181.104126,984.545898 1100.168213,1123.991821 981.027893,1241.242065 
	C972.483459,1249.651001 963.437195,1257.550049 953.871948,1265.852783 
	C788.349121,1266.013062 623.578613,1266.004150 458.808075,1266.031738 
	C456.848267,1266.032104 454.888550,1266.504028 452.928772,1266.755859 
	C452.522705,1266.790649 452.116608,1266.825562 451.407837,1266.588501 
	C451.105133,1266.316528 450.997955,1265.890869 450.997955,1265.890869 
z"/>
<path fill="#5BB9B3" opacity="1.000000" stroke="none" 
	d="
M982.009033,797.536072 
	C981.732727,798.815002 981.438293,799.660828 980.987976,800.805664 
	C976.362610,804.475220 971.679626,807.599731 967.461243,811.259888 
	C950.790466,825.724487 934.329956,840.431335 917.667908,854.906128 
	C901.387695,869.048950 884.896362,882.948669 868.610657,897.085144 
	C854.449036,909.377869 840.509766,921.926697 826.354431,934.226746 
	C809.824341,948.590515 793.111572,962.744019 776.581055,977.107178 
	C762.425964,989.406250 748.480896,1001.947083 734.326294,1014.246826 
	C715.166016,1030.895996 695.846130,1047.361694 676.684753,1064.009644 
	C660.149231,1078.376465 643.792908,1092.949585 627.257935,1107.316895 
	C613.483887,1119.285278 599.502075,1131.014648 585.728638,1142.983643 
	C571.573669,1155.284180 557.620789,1167.817139 543.466858,1180.118896 
	C529.572388,1192.195068 515.464355,1204.025513 501.582214,1216.115601 
	C487.030579,1228.788696 472.639069,1241.645508 458.168091,1254.411377 
	C456.875061,1255.552002 455.512177,1256.613647 453.477356,1257.078125 
	C453.917847,1256.080688 454.358368,1255.083130 455.130310,1253.597168 
	C455.654846,1252.732300 455.847870,1252.355957 456.040924,1251.979614 
	C456.040924,1251.979614 455.985352,1252.010498 456.314392,1251.898193 
	C457.889435,1250.445312 459.175415,1249.139282 460.375549,1247.758667 
	C506.056671,1195.213379 551.729858,1142.661255 597.404236,1090.109985 
	C656.628235,1021.969177 715.872009,953.845337 774.980896,885.604736 
	C776.728271,883.587463 777.785217,880.368896 777.889282,877.661377 
	C778.085571,872.554688 777.287476,867.415649 777.017700,862.283997 
	C776.321472,849.040771 776.021851,835.766968 774.946716,822.555603 
	C773.535522,805.214294 772.046692,787.850342 769.677063,770.621887 
	C764.820923,735.314392 757.790161,700.404480 748.424622,666.000244 
	C745.499878,655.256165 742.048767,644.655457 738.838684,633.989075 
	C752.233276,604.959778 765.670532,575.950134 779.014343,546.897522 
	C816.479065,465.328003 853.904419,383.740356 891.352417,302.163147 
	C892.248047,300.212189 893.226990,298.299500 894.567871,295.545898 
	C896.383240,298.919983 897.954163,301.584778 899.291138,304.362213 
	C930.198303,368.567352 953.332642,435.461121 968.212585,505.151062 
	C971.681213,521.396423 974.296692,537.832642 976.983093,554.233704 
	C979.338257,568.612488 981.569946,583.027222 983.243713,597.496948 
	C984.631897,609.497620 985.345703,621.590210 985.971924,633.662109 
	C987.097961,655.366577 988.458069,677.079590 988.724426,698.801270 
	C988.933899,715.885315 988.072937,733.017334 986.894714,750.073364 
	C985.809143,765.787842 983.667358,781.429321 982.009033,797.536072 
z"/>
<path fill="#00568D" opacity="1.000000" stroke="none" 
	d="
M738.660522,633.963745 
	C742.048767,644.655457 745.499878,655.256165 748.424622,666.000244 
	C757.790161,700.404480 764.820923,735.314392 769.677063,770.621887 
	C772.046692,787.850342 773.535522,805.214294 774.946716,822.555603 
	C776.021851,835.766968 776.321472,849.040771 777.017700,862.283997 
	C777.287476,867.415649 778.085571,872.554688 777.889282,877.661377 
	C777.785217,880.368896 776.728271,883.587463 774.980896,885.604736 
	C715.872009,953.845337 656.628235,1021.969177 597.404236,1090.109985 
	C551.729858,1142.661255 506.056671,1195.213379 460.375549,1247.758667 
	C459.175415,1249.139282 457.889435,1250.445312 456.335205,1251.922119 
	C459.617554,1243.492065 462.979858,1234.821411 466.836853,1226.376831 
	C487.038116,1182.148071 507.348663,1137.969238 527.653259,1093.787720 
	C541.769409,1063.072021 555.975586,1032.397583 570.072083,1001.672974 
	C587.640076,963.381836 605.107300,925.044373 622.673645,886.752502 
	C636.629639,856.330444 650.703735,825.962585 664.662781,795.541992 
	C682.302307,757.101013 699.871826,718.627930 717.485046,680.174866 
	C723.587463,666.852173 729.743042,653.553772 735.839111,640.228210 
	C736.665527,638.421692 737.285706,636.520874 738.062744,634.284180 
	C738.124146,633.904602 738.482422,633.938477 738.660522,633.963745 
z"/>
<path fill="#579AB8" opacity="1.000000" stroke="none" 
	d="
M453.393677,1266.856934 
	C454.888550,1266.504028 456.848267,1266.032104 458.808075,1266.031738 
	C623.578613,1266.004150 788.349121,1266.013062 953.592529,1266.031006 
	C954.065369,1266.042603 954.030334,1266.454102 953.997314,1266.657715 
	C952.467834,1266.907593 950.971252,1266.994263 949.474731,1266.994263 
	C785.268372,1267.000366 621.061951,1267.000122 456.855591,1266.998291 
	C455.856567,1266.998291 454.857574,1266.972046 453.393677,1266.856934 
z"/>
<path fill="#579AB8" opacity="1.000000" stroke="none" 
	d="
M450.624634,1265.914795 
	C450.997955,1265.890869 451.105133,1266.316528 451.105530,1266.535889 
	C450.203979,1266.750610 449.301971,1266.745850 448.213440,1266.457764 
	C448.768402,1266.095825 449.509857,1266.017334 450.624634,1265.914795 
z"/>
<path fill="#00568D" opacity="1.000000" stroke="none" 
	d="
M455.830139,1252.214111 
	C455.847870,1252.355957 455.654846,1252.732300 455.221436,1253.323975 
	C455.193848,1253.175659 455.406586,1252.812256 455.830139,1252.214111 
z"/>
</svg>