<svg version="1.1" id="Layer_1" xmlns="http://www.w3.org/2000/svg" xmlns:xlink="http://www.w3.org/1999/xlink" x="0px" y="0px"
	 width="100%" viewBox="0 0 1562 1562" enable-background="new 0 0 1562 1562" xml:space="preserve">
<path fill="#013C72" opacity="1.000000" stroke="none" 
	d="
M1.000001,784.000000 
	C1.000000,524.305298 1.000000,264.610596 1.445739,4.517148 
	C3.222673,4.078935 4.553868,4.004911 5.885065,4.004898 
	C524.923401,3.999928 1043.961670,4.000008 1563.000000,4.000000 
	C1563.000000,263.694702 1563.000000,523.389404 1562.852905,784.058594 
	C1562.355469,784.959351 1562.005005,784.885681 1561.550293,784.601135 
	C1561.445923,784.390320 1561.005005,784.225830 1560.542969,784.180298 
	C1558.748779,784.116516 1557.416504,784.082458 1556.084351,784.082458 
	C1348.385132,784.080139 1140.685791,784.079834 932.986572,784.086426 
	C931.322876,784.086426 929.659180,784.180664 927.793335,784.152954 
	C927.591187,784.075134 927.165771,783.993652 927.091675,783.530518 
	C927.011658,612.049255 927.006409,441.031097 926.993225,270.012909 
	C926.993103,268.018494 926.891296,266.024109 926.868408,263.758423 
	C926.592468,263.402649 926.284912,263.318146 925.513428,263.175201 
	C830.373962,263.111420 735.698425,263.105652 641.022888,263.106201 
	C640.027039,263.106201 639.031189,263.189331 637.770508,263.167053 
	C637.391907,263.406311 637.278198,263.712158 637.090942,264.480469 
	C637.011597,435.965485 637.006348,606.988098 636.993103,778.010742 
	C636.992981,780.005066 636.889465,781.999451 636.622803,784.034729 
	C636.411316,784.075684 636.009399,784.230835 635.547180,784.183655 
	C633.752747,784.117737 632.420593,784.082581 631.088379,784.082581 
	C423.388245,784.080139 215.688126,784.079895 7.987990,784.086182 
	C6.324120,784.086243 4.660252,784.176208 2.776770,784.303589 
	C2.557158,784.382874 2.346115,784.799438 1.823227,784.913391 
	C1.200226,784.684875 1.100114,784.342468 1.000001,784.000000 
z"/>
<path fill="#009BDB" opacity="1.000000" stroke="none" 
	d="
M927.995483,784.230835 
	C929.659180,784.180664 931.322876,784.086426 932.986572,784.086426 
	C1140.685791,784.079834 1348.385132,784.080139 1556.084351,784.082458 
	C1557.416504,784.082458 1558.748779,784.116516 1560.598877,784.276672 
	C1561.263672,784.593384 1561.442993,784.724487 1561.654663,784.811951 
	C1562.005005,784.885681 1562.355469,784.959351 1562.852905,784.516479 
	C1563.000000,1043.631104 1563.000000,1303.262207 1563.000000,1562.946655 
	C1042.440186,1562.946655 521.880432,1562.946655 1.000000,1562.946655 
	C1.000000,1303.642700 1.000000,1044.285156 1.000001,784.463867 
	C1.100114,784.342468 1.200226,784.684875 1.924000,784.865479 
	C2.743614,784.587036 2.893188,784.427246 2.996383,784.224243 
	C4.660252,784.176208 6.324120,784.086243 7.987990,784.086182 
	C215.688126,784.079895 423.388245,784.080139 631.088379,784.082581 
	C632.420593,784.082581 633.752747,784.117737 635.668091,784.325806 
	C636.428711,784.692078 636.622864,784.848206 636.904236,785.448608 
	C636.974731,958.515991 636.974731,1131.118286 636.974731,1303.746338 
	C733.958679,1303.746338 830.340332,1303.746338 927.000000,1303.746338 
	C927.000000,1301.251343 927.000000,1299.105469 927.000000,1296.959473 
	C927.000000,1128.463867 926.999329,959.968201 927.006836,791.472595 
	C927.006897,789.309631 927.110779,787.146606 927.319031,784.874512 
	C927.670715,784.611023 927.845215,784.432861 927.995483,784.230835 
z"/>
<path fill="#000000" opacity="1.000000" stroke="none" 
	d="
M1563.000000,3.500031 
	C1043.961670,4.000008 524.923401,3.999928 5.885065,4.004898 
	C4.553868,4.004911 3.222673,4.078935 1.445739,4.059196 
	C1.048076,2.345619 0.378556,0.128286 3.506575,0.975730 
	C4.127656,1.143994 4.833333,1.000000 5.500000,1.000000 
	C523.166687,1.000000 1040.833374,0.997508 1558.500000,1.141132 
	C1559.788696,1.141489 1563.127563,-1.328504 1563.000000,3.500031 
z"/>
<path fill="#FFFFFF" opacity="1.000000" stroke="none" 
	d="
M927.166260,784.983643 
	C927.110779,787.146606 927.006897,789.309631 927.006836,791.472595 
	C926.999329,959.968201 927.000000,1128.463867 927.000000,1296.959473 
	C927.000000,1299.105469 927.000000,1301.251343 927.000000,1303.746338 
	C830.340332,1303.746338 733.958679,1303.746338 636.974731,1303.746338 
	C636.974731,1131.118286 636.974731,958.515991 636.964111,785.201172 
	C636.913757,784.323792 636.874023,784.158813 636.834229,783.993774 
	C636.889465,781.999451 636.992981,780.005066 636.993103,778.010742 
	C637.006348,606.988098 637.011597,435.965485 637.265381,264.383331 
	C637.749756,263.682281 637.923767,263.485565 638.035339,263.233643 
	C639.031189,263.189331 640.027039,263.106201 641.022888,263.106201 
	C735.698425,263.105652 830.373962,263.111420 925.618774,263.344360 
	C926.377747,263.762146 926.594055,263.914734 926.836914,264.029694 
	C926.891296,266.024109 926.993103,268.018494 926.993225,270.012909 
	C927.006409,441.031097 927.011658,612.049255 927.032043,783.777954 
	C927.086487,784.653564 927.126404,784.818604 927.166260,784.983643 
z"/>
<path fill="#D5DEE7" opacity="1.000000" stroke="none" 
	d="
M637.770508,263.167053 
	C637.923767,263.485565 637.749756,263.682281 637.338867,263.920898 
	C637.278198,263.712158 637.391907,263.406311 637.770508,263.167053 
z"/>
<path fill="#D5DEE7" opacity="1.000000" stroke="none" 
	d="
M926.868408,263.758423 
	C926.594055,263.914734 926.377747,263.762146 926.082703,263.402771 
	C926.284912,263.318146 926.592468,263.402649 926.868408,263.758423 
z"/>
<path fill="#008BC9" opacity="1.000000" stroke="none" 
	d="
M2.776770,784.303589 
	C2.893188,784.427246 2.743614,784.587036 2.446888,784.751526 
	C2.346115,784.799438 2.557158,784.382874 2.776770,784.303589 
z"/>
<path fill="#008BC9" opacity="1.000000" stroke="none" 
	d="
M636.622803,784.034729 
	C636.874023,784.158813 636.913757,784.323792 636.893555,784.736145 
	C636.622864,784.848206 636.428711,784.692078 636.130371,784.373047 
	C636.009399,784.230835 636.411316,784.075684 636.622803,784.034729 
z"/>
<path fill="#008BC9" opacity="1.000000" stroke="none" 
	d="
M927.319092,784.874512 
	C927.126404,784.818604 927.086487,784.653564 927.106201,784.241089 
	C927.165771,783.993652 927.591187,784.075134 927.793335,784.152954 
	C927.845215,784.432861 927.670715,784.611023 927.319092,784.874512 
z"/>
<path fill="#008BC9" opacity="1.000000" stroke="none" 
	d="
M1561.550293,784.601135 
	C1561.442993,784.724487 1561.263672,784.593384 1561.061035,784.322266 
	C1561.005005,784.225830 1561.445923,784.390320 1561.550293,784.601135 
z"/>
</svg>