<svg xmlns="http://www.w3.org/2000/svg" width="602.4" height="561.6" version="1.0"><path d="M72 611c-5-23-5-32-5-55a284 284 0 1 1 561 55l-88 64-13 106H383l-9 7a42 42 0 0 1-50-1l-8-6H172l-13-106-87-64z" style="fill:#df0024;fill-rule:evenodd" transform="translate(-49 -252)"/><path d="m322 731 12 10c5 4 11 6 16 6s11-2 16-6l12-10h106l11-87 84-62c3-12 4-17 4-29 0-15-4-34-10-47v-1L421 659l146-181c-6-26-17-46-35-63l-1-1-132 230 116-251v-1c-16-20-35-34-60-43l-80 285 58-296a119 119 0 0 0-73-15l-10 309-14-308-13-1c-20 0-39 5-58 15l-1 1 61 296-81-285c-26 9-47 24-60 43l117 250-131-231c-18 15-33 39-39 64l148 183-153-155v1a119 119 0 0 0-6 78l85 63 11 85h106z" style="fill:#f6e000;fill-rule:evenodd" transform="translate(-49 -252)"/></svg>